<?xml version="1.0" encoding="UTF-8"?>
<svg version="1.1" xmlns="http://www.w3.org/2000/svg" width="2000" height="2000">
<path d="M0 0 C660 0 1320 0 2000 0 C2000 660 2000 1320 2000 2000 C1340 2000 680 2000 0 2000 C0 1340 0 680 0 0 Z " fill="#FE751F" transform="translate(0,0)"/>
<path d="M0 0 C108.78709221 -0.0806627 108.78709221 -0.0806627 154.328125 -0.09765625 C164.75065111 -0.10157152 175.17317715 -0.10561235 185.59570312 -0.10986328 C186.90185168 -0.11039078 188.20800024 -0.11091828 189.55372906 -0.11146176 C210.59265536 -0.12014126 231.63157063 -0.13589828 252.67049041 -0.15430559 C274.29002218 -0.173062 295.90954821 -0.18412882 317.52908778 -0.18817699 C330.85078611 -0.19091018 344.17245329 -0.19951729 357.49414203 -0.21583293 C366.65087475 -0.22647081 375.80759155 -0.22958537 384.96432999 -0.22700275 C390.23351339 -0.22573196 395.50264267 -0.22756741 400.77181625 -0.23841095 C455.25905661 -0.34492002 455.25905661 -0.34492002 481.875 4.3125 C483.17050781 4.53268799 484.46601562 4.75287598 485.80078125 4.97973633 C489.53946787 5.62344078 493.27042312 6.30532595 497 7 C497.99161133 7.18401367 498.98322266 7.36802734 500.00488281 7.55761719 C563.90853495 19.82149651 625.08664895 51.26189686 675.4609375 91.76513672 C676.89453647 92.91538157 678.33754079 94.05387694 679.78125 95.19140625 C691.70274398 104.71106982 702.53793474 115.44470959 713.35510254 126.17987061 C714.35121585 127.16794365 715.34880485 128.15453172 716.34802246 129.13946533 C723.04908711 135.75470605 729.1259512 142.64745415 735 150 C735.93495161 151.10168215 736.87628865 152.19802901 737.828125 153.28515625 C753.2281615 170.94552069 766.26326133 190.75261592 778 211 C778.38091797 211.65210449 778.76183594 212.30420898 779.15429688 212.97607422 C796.2113102 242.3291791 809.84693701 273.47399368 818.31835938 306.37060547 C818.91243985 308.6622411 819.53170061 310.94356849 820.171875 313.22265625 C824.71109983 329.54640708 827.70307356 345.95614728 829.61987305 362.78295898 C829.89099899 365.07751685 830.1927131 367.36854627 830.51489258 369.65649414 C832.51337042 384.48297706 832.44015572 399.37709064 832.4375 414.3125 C832.43826412 415.00776039 832.43902824 415.70302078 832.43981552 416.41934967 C832.46059128 439.29877174 831.27316797 461.48254733 827 484 C826.58841642 486.31117562 826.17695249 488.62237254 825.765625 490.93359375 C824.64931115 496.98916426 823.35661558 502.99434337 822 509 C821.79858398 509.92828613 821.59716797 510.85657227 821.38964844 511.81298828 C815.44143659 538.9947139 805.95574147 565.89126255 794 591 C793.48211914 592.09328613 792.96423828 593.18657227 792.43066406 594.31298828 C781.5420436 617.11679791 769.07577292 638.70196384 754 659 C753.47019531 659.71381836 752.94039062 660.42763672 752.39453125 661.16308594 C742.55812958 674.34643425 732.10105797 686.86163005 721 699 C720.01807843 700.08710345 719.03631673 701.17435132 718.0546875 702.26171875 C713.18607553 707.62715915 708.35008021 712.81284278 702.78125 717.46875 C700.97565261 719.02093021 699.3391951 720.66097678 697.6875 722.375 C694.03532376 726.08488557 690.05157538 729.30490824 685.99609375 732.5625 C683.45734775 734.62792047 680.97624868 736.74381876 678.50732422 738.89160156 C635.22951225 776.34070666 580.79225924 802.55911266 526 818 C525.21077148 818.22880859 524.42154297 818.45761719 523.60839844 818.69335938 C483.61084139 830.25687523 442.63166995 832.63414836 401.25302756 832.46426249 C395.84326848 832.44664157 390.43352246 832.45285807 385.02374268 832.45587158 C375.69784568 832.45794755 366.37206246 832.44562531 357.04619408 832.42292023 C343.56333309 832.39011613 330.08052591 832.37996452 316.59762935 832.37496826 C294.71129545 832.3662596 272.82502191 832.33976565 250.9387207 832.30175781 C229.70499972 832.26492208 208.47129534 832.23671323 187.23754883 832.21972656 C185.89730849 832.218644 184.55706815 832.21756118 183.21682781 832.21647811 C172.83681344 832.2081333 162.45679866 832.20033127 152.07678378 832.19265985 C101.38446709 832.15506969 50.69230186 832.07456273 0 832 C0 697.69 0 563.38 0 425 C115.83 425 231.66 425 351 425 C351.99 428.63 352.98 432.26 354 436 C359.61529476 454.58344719 371.32846327 468.10346393 388.35546875 477.23828125 C404.75358189 485.52304224 424.53000296 486.37097765 442 481 C450.59541543 477.78739505 458.04192572 472.93442121 465 467 C465.8146875 466.39285156 466.629375 465.78570313 467.46875 465.16015625 C476.11246262 457.78365458 481.20875857 446.46631241 485 436 C485.37511719 434.96875 485.75023437 433.9375 486.13671875 432.875 C489.1121046 419.5194219 488.89665358 402.50858172 483 390 C482.50242187 388.92105469 482.00484375 387.84210938 481.4921875 386.73046875 C472.65762498 369.0818892 459.65887767 357.49728776 441 351 C423.52970748 345.4565418 404.36042665 346.699005 388 355 C372.04173307 363.8777333 362.39155183 375.41007256 355 392 C353.68 396.95 352.36 401.9 351 407 C235.17 407 119.34 407 0 407 C0 272.69 0 138.38 0 0 Z " fill="#1E1E1E" transform="translate(960,472)"/>
<path d="M0 0 C8.59215488 0.02934947 17.18419709 0.03203438 25.77641252 0.03517124 C48.37198381 0.05602158 70.9675119 0.11186645 93.56303361 0.16358921 C144.13553361 0.24608921 194.70803361 0.32858921 246.81303361 0.41358921 C246.81303361 135.05358921 246.81303361 269.69358921 246.81303361 408.41358921 C176.85303361 408.41358921 106.89303361 408.41358921 34.81303361 408.41358921 C33.49303361 403.13358921 32.17303361 397.85358921 30.81303361 392.41358921 C23.33167297 375.05683252 12.30519018 361.93126388 -5.12446639 354.03858921 C-19.65406578 348.31577107 -35.95500898 345.57455581 -51.18696639 350.41358921 C-52.12798201 350.68171421 -53.06899764 350.94983921 -54.03852889 351.22608921 C-65.8516455 354.81488413 -74.41556535 360.82028769 -83.18696639 369.41358921 C-83.81473983 370.0052689 -84.44251326 370.59694858 -85.08931014 371.20655796 C-97.42055262 383.87334446 -101.34317183 401.24142892 -101.43696639 418.28858921 C-101.46790389 419.6827103 -101.46790389 419.6827103 -101.49946639 421.10499546 C-101.58653236 436.71157019 -93.83033863 452.349401 -83.65571639 463.95265171 C-68.26677835 479.29289058 -50.31332662 484.6973916 -29.19502303 484.73048374 C-21.62374376 484.62342716 -15.17703102 483.43074847 -8.18696639 480.41358921 C-7.16345076 479.97788608 -6.13993514 479.54218296 -5.08540389 479.09327671 C12.4653526 470.96216674 23.84574866 457.59272849 30.84037736 439.80030796 C32.48541944 435.06160466 33.59052645 430.30361785 34.81303361 425.41358921 C104.77303361 425.41358921 174.73303361 425.41358921 246.81303361 425.41358921 C246.81303361 560.05358921 246.81303361 694.69358921 246.81303361 833.41358921 C174.35740861 833.53733921 174.35740861 833.53733921 100.43803361 833.66358921 C85.26270646 833.70000522 70.08737931 833.73642124 54.45219377 833.77394077 C35.72587541 833.79200718 35.72587541 833.79200718 26.9215236 833.79536411 C20.85497041 833.79904675 14.7885711 833.81359686 8.72206071 833.83589146 C-75.15240587 834.13432487 -75.15240587 834.13432487 -112.72944686 825.94337437 C-115.37731713 825.37255393 -118.03240596 824.85067778 -120.69087264 824.33155796 C-150.22162954 818.42136887 -179.03981646 808.40473781 -206.18696639 795.41358921 C-207.25221541 794.90553745 -208.31746444 794.39748569 -209.41499373 793.87403843 C-238.28135699 780.01244767 -265.11444899 763.37621855 -290.18696639 743.41358921 C-291.57915389 742.31144077 -291.57915389 742.31144077 -292.99946639 741.18702671 C-298.94229625 736.40912657 -304.59090253 731.38139135 -310.16743514 726.18702671 C-312.40673904 724.10661918 -314.69980523 722.10038221 -317.01509139 720.10499546 C-321.44585061 716.24311736 -325.60597907 712.1420751 -329.74946639 707.97608921 C-330.46554061 707.26388218 -331.18161483 706.55167515 -331.91938826 705.81788608 C-336.54858121 701.18026877 -340.92245569 696.38658918 -345.18696639 691.41358921 C-346.13650351 690.3306946 -347.08697432 689.24861774 -348.03852889 688.16749546 C-387.52070151 642.90521162 -417.64719978 589.22958753 -434.18696639 531.41358921 C-434.56079451 530.20960483 -434.93462264 529.00562046 -435.31977889 527.76515171 C-441.00435073 508.99927033 -444.14294918 489.28654069 -446.99946639 469.91358921 C-447.11113143 469.17004185 -447.22279647 468.42649448 -447.3378453 467.66041538 C-453.48747441 423.15652044 -451.12454821 374.98681601 -440.86225936 331.29103062 C-440.15993682 328.2984155 -439.48726206 325.30000199 -438.81587264 322.30030796 C-435.35507487 307.10180617 -431.10547842 292.20361696 -426.18696639 277.41358921 C-425.86421737 276.44163608 -425.54146834 275.46968296 -425.20893905 274.46827671 C-414.01722849 241.4276913 -397.01464267 210.01824314 -377.18696639 181.41358921 C-376.76205916 180.79435581 -376.33715194 180.17512241 -375.89936873 179.53712437 C-369.6044444 170.38291217 -362.73623097 161.76252543 -355.65766951 153.20460483 C-354.39575648 151.66785284 -353.15624774 150.11275119 -351.92134139 148.55421421 C-339.05547139 132.34911077 -324.04233714 116.72859669 -308.18696639 103.41358921 C-307.27044295 102.61952671 -306.35391951 101.82546421 -305.40962264 101.00733921 C-267.21728672 68.01396001 -222.76691893 41.3673654 -175.18696639 24.41358921 C-174.03083846 24.00125034 -172.87471053 23.58891147 -171.68354842 23.16407749 C-155.65628791 17.51099429 -139.57676332 12.60391034 -122.94624373 9.01319858 C-120.44279867 8.46918327 -117.94996121 7.89190994 -115.45649764 7.30421421 C-110.39662538 6.15112086 -105.30488634 5.2675977 -100.18696639 4.41358921 C-99.16852897 4.24216656 -98.15009154 4.0707439 -97.10079238 3.89412662 C-65.0088921 -1.18404812 -32.387045 -0.11326777 0 0 Z " fill="#1E1E1E" transform="translate(657.1869663894176,471.58641079068184)"/>
<path d="M0 0 C19.17686286 -0.63989532 36.45059167 5.68056731 50.93359375 18.46875 C63.7123999 31.10234244 71.78085155 47.32952008 72.11474609 65.37475586 C72.1365813 76.98520912 71.73270562 86.54162127 66.68359375 97.1875 C66.23757813 98.16332031 65.7915625 99.13914062 65.33203125 100.14453125 C56.99478262 116.7957401 42.93423618 128.45865533 25.68359375 135.1875 C7.08429733 140.85986034 -12.22710958 139.36178905 -29.50024414 130.50708008 C-44.37547015 122.46851155 -54.5778172 110.59308461 -61.31640625 95.1875 C-61.64511719 94.46691406 -61.97382812 93.74632812 -62.3125 93.00390625 C-64.62446066 87.50608592 -64.67950451 83.55651742 -65.31640625 77.1875 C-181.14640625 77.1875 -296.97640625 77.1875 -416.31640625 77.1875 C-416.31640625 71.9075 -416.31640625 66.6275 -416.31640625 61.1875 C-300.48640625 61.1875 -184.65640625 61.1875 -65.31640625 61.1875 C-64.98640625 57.8875 -64.65640625 54.5875 -64.31640625 51.1875 C-59.10152116 32.24583059 -46.16122921 16.92164273 -29.29833984 7.22412109 C-20.01173255 2.36689831 -10.33681541 0.58441359 0 0 Z " fill="#FEFDF9" transform="translate(1376.31640625,818.8125)"/>
<path d="M0 0 C13.02861149 10.24100829 23.39038882 24.96421335 26.51953125 41.48828125 C26.51953125 43.46828125 26.51953125 45.44828125 26.51953125 47.48828125 C96.80953125 47.48828125 167.09953125 47.48828125 239.51953125 47.48828125 C239.51953125 53.09828125 239.51953125 58.70828125 239.51953125 64.48828125 C169.22953125 64.48828125 98.93953125 64.48828125 26.51953125 64.48828125 C26.18953125 67.12828125 25.85953125 69.76828125 25.51953125 72.48828125 C21.58943297 89.96210281 10.75863121 103.86330207 -3.8046875 113.8125 C-7.91787456 116.38849599 -12.00192151 118.61276445 -16.48046875 120.48828125 C-17.85525391 121.07802734 -17.85525391 121.07802734 -19.2578125 121.6796875 C-35.81520846 127.7954824 -55.55005393 125.46192385 -71.48046875 118.48828125 C-89.76811173 109.38003883 -101.11129308 95.22988747 -108.48046875 76.48828125 C-110.47486635 70.10224656 -110.7854912 64.28016767 -110.73046875 57.61328125 C-110.73820313 56.68386719 -110.7459375 55.75445313 -110.75390625 54.796875 C-110.69925878 35.20575848 -103.08014029 19.33811397 -89.48046875 5.48828125 C-88.79210937 4.77542969 -88.10375 4.06257812 -87.39453125 3.328125 C-64.01056461 -19.23001383 -25.36071696 -18.87292625 0 0 Z " fill="#FDFCF8" transform="translate(665.48046875,832.51171875)"/>
<path d="M0 0 C17.49 0 34.98 0 53 0 C53 35.31 53 70.62 53 107 C38.15 107 23.3 107 8 107 C7.67 85.55 7.34 64.1 7 42 C2.05 50.58 -2.9 59.16 -8 68 C-11.01402346 73.17095619 -14.0308968 78.33944528 -17.0625 83.5 C-18.10887041 85.28491296 -19.15503812 87.06992934 -20.19885254 88.8563385 C-21.19086447 90.53979884 -22.20448083 92.2104702 -23.21875 93.88061523 C-25.04198865 96.91714436 -25.04198865 96.91714436 -26.234375 100.01196289 C-27.5505641 103.00187384 -28.53801267 104.83846341 -31 107 C-35.90234036 108.36649892 -40.47254502 108.56728311 -45.53955078 108.46850586 C-47.87063907 108.4375579 -50.17529105 108.52896087 -52.50390625 108.63085938 C-57.00056889 108.69850933 -60.68798336 108.37828564 -65 107 C-68.84524814 103.18013186 -70.80414172 98.90600969 -73 94 C-74.05782956 92.15259659 -75.13865368 90.31809769 -76.24609375 88.5 C-77.31139458 86.66753714 -78.37515258 84.83417664 -79.4375 83 C-80.63638929 80.93730847 -81.83562514 78.87481835 -83.03515625 76.8125 C-83.66695801 75.72582031 -84.29875977 74.63914062 -84.94970703 73.51953125 C-88.74231667 67.00377935 -92.56059532 60.50300592 -96.375 54 C-100.149375 47.565 -100.149375 47.565 -104 41 C-104.33 62.78 -104.66 84.56 -105 107 C-119.52 107 -134.04 107 -149 107 C-149 72.02 -149 37.04 -149 1 C-131.51 1 -114.02 1 -96 1 C-88.13431193 12.23669725 -88.13431193 12.23669725 -85.59765625 16.34765625 C-85.02547363 17.2701416 -84.45329102 18.19262695 -83.86376953 19.14306641 C-82.97214111 20.58818604 -82.97214111 20.58818604 -82.0625 22.0625 C-75.34261079 32.88455839 -68.51426036 43.63273957 -61.625 54.34765625 C-59.41761281 57.78092349 -57.22597186 61.22249328 -55.0625 64.68359375 C-54.64145996 65.35310059 -54.22041992 66.02260742 -53.78662109 66.71240234 C-52.72024648 68.41080227 -51.66057213 70.11340428 -50.6015625 71.81640625 C-50.07304688 72.53699219 -49.54453125 73.25757813 -49 74 C-48.34 74 -47.68 74 -47 74 C-45.48013189 72.01479329 -45.48013189 72.01479329 -43.9453125 69.41796875 C-43.3366333 68.43272217 -42.7279541 67.44747559 -42.10083008 66.43237305 C-41.44880615 65.36156494 -40.79678223 64.29075684 -40.125 63.1875 C-38.75692641 60.96849348 -37.38843201 58.74974634 -36.01953125 56.53125 C-35.33842285 55.42265625 -34.65731445 54.3140625 -33.95556641 53.171875 C-31.2741577 48.82270373 -28.54851881 44.50245072 -25.8125 40.1875 C-24.84491984 38.65893787 -23.87747151 37.13029228 -22.91015625 35.6015625 C-22.43465332 34.85036133 -21.95915039 34.09916016 -21.46923828 33.32519531 C-19.93277827 30.89361586 -18.40141746 28.45888303 -16.87109375 26.0234375 C-16.34862061 25.19303955 -15.82614746 24.3626416 -15.2878418 23.50708008 C-14.31020307 21.95300855 -13.33367582 20.39823684 -12.35864258 18.8425293 C-8.35074214 12.47787803 -4.17732843 6.26599265 0 0 Z " fill="#FFFEFD" transform="translate(913,1377)"/>
<path d="M0 0 C14.85 0 29.7 0 45 0 C45 35.31 45 70.62 45 107 C36.316875 107.268125 27.63375 107.53625 18.6875 107.8125 C14.60894653 107.99002808 14.60894653 107.99002808 10.44799805 108.17114258 C-7.78789531 108.63343722 -7.78789531 108.63343722 -13.02905273 104.23950195 C-15.94495952 101.12949658 -17.92978569 97.71197767 -20 94 C-21.44439051 92.15966679 -22.91838509 90.34165153 -24.4375 88.5625 C-25.15808594 87.67691406 -25.87867188 86.79132813 -26.62109375 85.87890625 C-29.37251852 82.5491853 -32.18069504 79.27223378 -35 76 C-39.31571001 70.99095973 -43.54526084 65.92420573 -47.7109375 60.7890625 C-50.76263536 57.07078217 -53.88096531 53.41035786 -57.01977539 49.76538086 C-60.55725309 45.62408889 -63.71068631 41.38575159 -67 37 C-67.33 60.1 -67.66 83.2 -68 107 C-82.85 107 -97.7 107 -113 107 C-113 72.02 -113 37.04 -113 1 C-104.3375 0.71125 -95.675 0.4225 -86.75 0.125 C-84.04006836 -0.00245605 -81.33013672 -0.12991211 -78.53808594 -0.26123047 C-60.33600121 -0.75865016 -60.33600121 -0.75865016 -54.74609375 3.98535156 C-52.07278667 6.82264855 -49.97687015 9.88324921 -48.04077148 13.25811768 C-46.46417383 15.89678296 -44.49146994 18.16736006 -42.5 20.5 C-41.7884375 21.3765625 -41.076875 22.253125 -40.34375 23.15625 C-37.60697951 26.47686486 -34.8089705 29.74046782 -32 33 C-27.70691479 37.98170038 -23.50767934 43.0261867 -19.36328125 48.1328125 C-16.02147733 52.18716634 -12.59526053 56.16716972 -9.16015625 60.14257812 C-8.67804688 60.70138672 -8.1959375 61.26019531 -7.69921875 61.8359375 C-7.27471436 62.32626465 -6.85020996 62.8165918 -6.4128418 63.32177734 C-4.56740396 65.51385264 -2.79003583 67.76245522 -1 70 C-0.67 46.9 -0.34 23.8 0 0 Z " fill="#FFFDFD" transform="translate(1249,1377)"/>
<path d="M0 0 C2.73168604 0.00316788 5.46229406 -0.02040299 8.19384766 -0.0456543 C17.61756577 -0.08010061 26.21350866 0.26476798 35.23681641 3.31567383 C36.44595703 3.70368164 37.65509766 4.09168945 38.90087891 4.49145508 C50.46119879 8.92951983 60.81624557 14.23446761 67.98681641 24.62817383 C68.58429688 25.44318359 68.58429688 25.44318359 69.19384766 26.2746582 C71.9876907 30.28548034 72.6808107 33.52741244 73.23681641 38.31567383 C66.47425129 38.41706058 59.71188201 38.48713354 52.94873047 38.53540039 C50.64787471 38.55552071 48.34707011 38.58282017 46.04638672 38.61743164 C42.73994323 38.66592995 39.43417555 38.68863861 36.12744141 38.70629883 C35.09814514 38.72694397 34.06884888 38.74758911 33.00836182 38.76885986 C25.83499434 38.77111578 25.83499434 38.77111578 22.67895508 36.36816406 C21.96509644 35.3521814 21.96509644 35.3521814 21.23681641 34.31567383 C19.30990281 33.05990904 19.30990281 33.05990904 17.29931641 32.12817383 C16.65091797 31.80461914 16.00251953 31.48106445 15.33447266 31.14770508 C7.20731036 27.92408204 -3.95778576 27.93727705 -12.20068359 30.75317383 C-18.73332038 33.82863889 -23.31383587 39.11503094 -26.26318359 45.62817383 C-27.50602111 54.79410054 -27.69543831 63.17745354 -22.76318359 71.31567383 C-18.34604397 76.48722591 -12.73135328 79.89364426 -5.92358398 80.61767578 C-2.59400465 80.75546029 0.71705357 80.77396503 4.04931641 80.75317383 C5.17402344 80.7731543 6.29873047 80.79313477 7.45751953 80.8137207 C14.11534177 80.80985213 19.26615369 80.00344946 25.31762695 77.17529297 C27.23681641 76.31567383 27.23681641 76.31567383 29.23681641 76.31567383 C29.23681641 75.65567383 29.23681641 74.99567383 29.23681641 74.31567383 C23.95681641 74.31567383 18.67681641 74.31567383 13.23681641 74.31567383 C13.23681641 68.04567383 13.23681641 61.77567383 13.23681641 55.31567383 C33.36681641 55.31567383 53.49681641 55.31567383 74.23681641 55.31567383 C74.23681641 72.80567383 74.23681641 90.29567383 74.23681641 108.31567383 C67.96681641 108.31567383 61.69681641 108.31567383 55.23681641 108.31567383 C54.24681641 105.01567383 53.25681641 101.71567383 52.23681641 98.31567383 C51.33060547 98.78618164 50.42439453 99.25668945 49.49072266 99.74145508 C33.42944444 107.99200573 18.92954613 110.76042365 0.86181641 110.75317383 C-0.33122604 110.75427658 -0.33122604 110.75427658 -1.54837036 110.75540161 C-23.40269192 110.70238581 -43.23555986 107.31731585 -59.61083984 91.63208008 C-71.76227823 78.55439774 -73.48737549 63.48751099 -72.89501953 46.37866211 C-72.29602826 37.00555795 -67.45578037 27.5913122 -61.38818359 20.56567383 C-60.52193359 19.82317383 -59.65568359 19.08067383 -58.76318359 18.31567383 C-58.21275391 17.77555664 -57.66232422 17.23543945 -57.09521484 16.67895508 C-41.41548634 1.77513067 -20.52706098 -0.04974247 0 0 Z " fill="#FFFDFD" transform="translate(668.76318359375,1375.684326171875)"/>
<path d="M0 0 C2.06442251 -0.00217537 4.12829911 -0.02036785 6.19262695 -0.03930664 C24.79474165 -0.11994504 42.40833187 1.91439384 56.48364258 15.14624023 C61.70576215 20.52366448 67.39770508 28.34392043 67.39770508 36.18530273 C60.67183643 36.31230046 53.94627806 36.3997368 47.21948242 36.45996094 C44.9322555 36.48507216 42.64510858 36.51916789 40.3581543 36.5625 C37.06644942 36.62329855 33.77580738 36.65154713 30.48364258 36.67358398 C28.95518204 36.71229362 28.95518204 36.71229362 27.39584351 36.75178528 C19.45249911 36.75490835 19.45249911 36.75490835 15.86376953 33.73535156 C15.04996826 32.89383545 14.23616699 32.05231934 13.39770508 31.18530273 C8.20614899 28.55363836 3.10431591 28.51581208 -2.60229492 29.18530273 C-6.54573363 30.53370436 -9.65493225 32.23794006 -12.60229492 35.18530273 C-12.60229492 36.17530273 -12.60229492 37.16530273 -12.60229492 38.18530273 C-8.74059836 39.03532764 -4.93831202 39.48719797 -1.00073242 39.83374023 C0.28526855 39.95023926 1.57126953 40.06673828 2.89624023 40.18676758 C3.5703595 40.24741394 4.24447876 40.3080603 4.93902588 40.37054443 C52.6351558 44.71417687 52.6351558 44.71417687 65.39770508 59.18530273 C68.71924677 64.23529558 67.92550037 70.39959742 67.39770508 76.18530273 C65.01359763 86.26422405 57.94594402 95.43038596 49.39770508 101.18530273 C35.51300541 109.0471691 21.20183013 110.85571496 5.57299805 110.70678711 C2.9003634 110.68532408 0.23041553 110.70671084 -2.44213867 110.73217773 C-20.30772032 110.76147606 -38.0763327 107.34054622 -51.55541992 94.59936523 C-56.51595386 88.74896452 -60.85900845 81.99319093 -60.60229492 74.18530273 C-54.01884615 74.05828808 -47.43571455 73.97086179 -40.85131836 73.91064453 C-38.61259147 73.8855358 -36.37394628 73.85144188 -34.13549805 73.80810547 C-30.91328758 73.74729555 -27.69216299 73.71905597 -24.46948242 73.69702148 C-22.97383255 73.65831184 -22.97383255 73.65831184 -21.44796753 73.61882019 C-16.85515895 73.616976 -13.66127077 73.62298358 -10.0480957 76.65332031 C-9.24098145 77.48887451 -8.43386719 78.32442871 -7.60229492 79.18530273 C-4.50405851 80.73442094 -1.24996102 80.41094671 2.14770508 80.43530273 C2.8515332 80.45592773 3.55536133 80.47655273 4.28051758 80.49780273 C9.87159085 80.53937205 13.8799803 79.28340672 18.27270508 75.62280273 C19.60314117 74.22703194 19.60314117 74.22703194 19.39770508 72.18530273 C15.53003831 70.40702902 12.28988638 69.86631318 8.05004883 69.65795898 C6.81440186 69.58988037 5.57875488 69.52180176 4.30566406 69.45166016 C2.9954126 69.38438721 1.68516113 69.31711426 0.33520508 69.24780273 C-45.08684543 66.59085963 -45.08684543 66.59085963 -57.60229492 53.18530273 C-61.61206028 47.33409622 -62.64087595 41.1448663 -61.60229492 34.18530273 C-58.72446764 23.11673625 -51.07976167 13.61873319 -41.28979492 7.81420898 C-27.89737264 0.76226162 -14.89815746 -0.00174799 0 0 Z " fill="#FFFDFC" transform="translate(376.602294921875,1375.814697265625)"/>
<path d="M0 0 C40.26 0 80.52 0 122 0 C122 8.91 122 17.82 122 27 C96.59 27 71.18 27 45 27 C45 32.28 45 37.56 45 43 C66.45 43 87.9 43 110 43 C110 49.93 110 56.86 110 64 C88.22 64 66.44 64 44 64 C44 69.61 44 75.22 44 81 C71.72 81 99.44 81 128 81 C128 89.58 128 98.16 128 107 C85.76 107 43.52 107 0 107 C0 71.69 0 36.38 0 0 Z " fill="#FFFDFD" transform="translate(990,1377)"/>
<path d="M0 0 C40.26 0 80.52 0 122 0 C122 8.91 122 17.82 122 27 C96.59 27 71.18 27 45 27 C45 32.28 45 37.56 45 43 C66.45 43 87.9 43 110 43 C110 49.93 110 56.86 110 64 C88.22 64 66.44 64 44 64 C44 69.61 44 75.22 44 81 C71.72 81 99.44 81 128 81 C128 89.58 128 98.16 128 107 C85.76 107 43.52 107 0 107 C0 71.69 0 36.38 0 0 Z " fill="#FFFDFD" transform="translate(462,1377)"/>
<path d="M0 0 C3.02646853 -0.54071424 5.83663037 -0.87361605 8.890625 -1.06640625 C9.78292816 -1.12344727 10.67523132 -1.18048828 11.59457397 -1.23925781 C37.44981716 -2.60010448 37.44981716 -2.60010448 45.09667969 1.76953125 C49.8482389 6.56875111 52.18874991 12.53796523 54.60644531 18.75341797 C57.0423935 24.42847737 60.57286901 29.38506391 64 34.5 C65.35264729 36.6009617 66.70033806 38.70512306 68.04296875 40.8125 C68.70216309 41.84246094 69.36135742 42.87242188 70.04052734 43.93359375 C73.13975458 48.78361793 76.22585981 53.64195971 79.3125 58.5 C86.32656904 69.53400552 93.41389166 80.51873576 100.5703125 91.4609375 C101.17157959 92.38181152 101.77284668 93.30268555 102.39233398 94.25146484 C103.57211565 96.05779994 104.75386148 97.86285397 105.93774414 99.66650391 C106.46746826 100.47780762 106.99719238 101.28911133 107.54296875 102.125 C108.01758545 102.84945313 108.49220215 103.57390625 108.98120117 104.3203125 C110 106 110 106 110 107 C94.82 107 79.64 107 64 107 C61.03 101.72 58.06 96.44 55 91 C32.56 91 10.12 91 -13 91 C-15.97 96.28 -18.94 101.56 -22 107 C-37.18 107 -52.36 107 -68 107 C-63.8008564 99.80146811 -59.64023233 92.7473843 -55.0625 85.8125 C-53.92628114 84.07734795 -52.79090456 82.34164414 -51.65625 80.60546875 C-51.06328125 79.69845215 -50.4703125 78.79143555 -49.859375 77.85693359 C-46.56634982 72.79719348 -43.31432192 67.71128343 -40.0625 62.625 C-39.38646729 61.56772705 -38.71043457 60.5104541 -38.01391602 59.42114258 C-33.10427731 51.73753746 -28.20791225 44.04552193 -23.31567383 36.35083008 C-18.63879391 28.99724109 -13.94710163 21.65318053 -9.25 14.3125 C-8.55777344 13.23033203 -7.86554688 12.14816406 -7.15234375 11.03320312 C-6.50910156 10.02837891 -5.86585937 9.02355469 -5.203125 7.98828125 C-4.63239258 7.09665283 -4.06166016 6.20502441 -3.47363281 5.28637695 C-2.33135218 3.51410093 -1.16958472 1.75437708 0 0 Z " fill="#FFFDFC" transform="translate(1580,1377)"/>
<path d="M0 0 C42.24 0 84.48 0 128 0 C128 8.91 128 17.82 128 27 C114.14 27 100.28 27 86 27 C86 53.4 86 79.8 86 107 C71.48 107 56.96 107 42 107 C42 80.6 42 54.2 42 27 C28.14 27 14.28 27 0 27 C0 18.09 0 9.18 0 0 Z " fill="#FFFDFD" transform="translate(1310,1377)"/>
<path d="M0 0 C14.85 0 29.7 0 45 0 C45 35.31 45 70.62 45 107 C30.15 107 15.3 107 0 107 C0 71.69 0 36.38 0 0 Z " fill="#FFFDFC" transform="translate(1454,1377)"/>
<path d="M0 0 C0.66 0 1.32 0 2 0 C4.26378916 3.93072314 6.52402771 7.86345779 8.78100586 11.7980957 C9.54923914 13.13621957 10.31843826 14.47378943 11.08862305 15.81079102 C12.19574539 17.73308661 13.29937462 19.65735036 14.40234375 21.58203125 C14.74716293 22.17901321 15.09198212 22.77599518 15.44725037 23.3910675 C16.88923191 25.9141101 18.07767445 28.23302335 19 31 C7.12 31 -4.76 31 -17 31 C-8.77899485 14.55798969 -8.77899485 14.55798969 -4.6875 7.625 C-4.25888672 6.87734375 -3.83027344 6.1296875 -3.38867188 5.359375 C-2.31870901 3.53659895 -1.16699678 1.76222915 0 0 Z " fill="#FF7622" transform="translate(1600,1409)"/>
</svg>
